<svg width="15" height="15" viewBox="0 0 15 15" fill="none" xmlns="http://www.w3.org/2000/svg">
<path opacity="0.25" d="M13.946 6.83189C15.0168 6.022 14.444 4.31533 13.1015 4.31533H10.6723C10.0584 4.31533 9.51609 3.91536 9.33476 3.32884L8.61061 0.98653C8.20397 -0.328787 6.34218 -0.328787 5.93553 0.98653L5.21139 3.32884C5.03006 3.91536 4.48776 4.31533 3.87385 4.31533H1.40268C0.0644901 4.31533 -0.51101 6.01289 0.551289 6.82669L2.66777 8.44808C3.13192 8.80365 3.32621 9.41024 3.15503 9.96932L2.38603 12.4809C1.98723 13.7834 3.49474 14.8305 4.57608 14.0021L6.42168 12.5882C6.92404 12.2034 7.6221 12.2034 8.12446 12.5882L9.95376 13.9896C11.0366 14.8192 12.5456 13.768 12.1427 12.4648L11.363 9.94286C11.189 9.37991 11.3861 8.76824 11.856 8.41278L13.946 6.83189Z" fill="black"/>
</svg>
