<svg xmlns="http://www.w3.org/2000/svg" viewBox="0 0 24 24" width="48" height="48">
  <rect width="24" height="24" rx="6" fill="#991B1B"/>
  <rect x="1" y="1" width="22" height="22" rx="5" fill="none" stroke="#DC2626" stroke-width="0.75"/>
  <path d="M4 15h16v1H4z" fill="#FFFFFF"/>
  <path d="M2 17h20v0.8A1.2 1.2 0 0 1 20.8 19H3.2A1.2 1.2 0 0 1 2 17.8V17z" fill="#FCA5A5"/>
  <path d="M11 17h2v1h-2z" fill="#991B1B"/>
  <path d="M12 4a5 5 0 0 0-5 5v2h1V9a4 4 0 0 1 8 0v2h1V9a5 5 0 0 0-5-5z" fill="#FFFFFF"/>
  <rect x="6" y="9.5" width="2" height="3.5" rx="1" fill="#FCA5A5"/>
  <rect x="16" y="9.5" width="2" height="3.5" rx="1" fill="#FCA5A5"/>
  <circle cx="12" cy="11" r="1.5" fill="#FFFFFF" opacity="0.9"/>
  <circle cx="12" cy="11" r="0.7" fill="#EF4444"/>
</svg>
