<svg xmlns="http://www.w3.org/2000/svg" viewBox="0 0 24 24" width="48" height="48">
  <rect width="24" height="24" rx="6" fill="#991B1B"/>
  <rect x="1" y="1" width="22" height="22" rx="5" fill="none" stroke="#DC2626" stroke-width="0.75"/>
  <path d="M12 12a5 5 0 1 0 0-10 5 5 0 0 0 0 10zm0-8a3 3 0 1 1 0 6 3 3 0 0 1 0-6zm0 10c-4.42 0-8 2.24-8 5v1h16v-1c0-2.76-3.58-5-8-5zm-5.65 4c.56-.83 2.53-1.5 5.65-1.5s5.09.67 5.65 1.5H6.35z" fill="#FFFFFF"/>
  <path d="M18 6h-2v2h-2v2h2v2h2v-2h2V8h-2V6z" fill="#FCA5A5"/>
</svg>
